<mxfile host="app.diagrams.net" modified="2023-04-24T06:39:55.177Z" agent="Mozilla/5.0 (Windows NT 10.0; WOW64) AppleWebKit/537.36 (KHTML, like Gecko) Chrome/86.0.4240.198 Safari/537.36" version="21.1.5" etag="3KFy6c1G3Hvi45Grz0tV" type="github">
  <diagram name="第 1 页" id="vk53yrhyxrORNuuuWb8F">
    <mxGraphModel>
      <root>
        <mxCell id="0" />
        <mxCell id="1" parent="0" />
      </root>
    </mxGraphModel>
  </diagram>
</mxfile>
